<?xml version="1.0" encoding="utf-8"?>
<!-- Generator: Adobe Illustrator 16.0.0, SVG Export Plug-In . SVG Version: 6.00 Build 0)  -->
<!DOCTYPE svg PUBLIC "-//W3C//DTD SVG 1.1//EN" "http://www.w3.org/Graphics/SVG/1.1/DTD/svg11.dtd">
<svg version="1.1" id="Layer_1" xmlns="http://www.w3.org/2000/svg" xmlns:xlink="http://www.w3.org/1999/xlink" x="0px" y="0px"
	 width="128px" height="128px" viewBox="0 0 128 128" enable-background="new 0 0 128 128" xml:space="preserve">
<g>
	<g>
		<polygon fill="#FF6666" points="128,113.447 105.954,113.447 105.954,109.447 124,109.447 124,24.646 128,24.646 		"/>
	</g>
	<g>
		<polygon fill="#FF6666" points="74.863,113.447 0,113.447 0,24.646 4,24.646 4,109.447 74.863,109.447 		"/>
	</g>
	<g>
		<g>
			<path fill="#FF6666" d="M65.646,111.617h-4c0-3.746-3.005-6.795-6.698-6.795H8.49V17.264h46.456
				c5.898,0,10.698,4.843,10.7,10.795V111.617z M12.49,100.822h42.457c2.533,0,4.864,0.893,6.698,2.383V28.06
				c-0.001-3.747-3.006-6.796-6.699-6.796H12.49V100.822z"/>
		</g>
		<g>
			<path fill="#FF6666" d="M66.357,111.617h-4V28.06c0-5.953,4.799-10.796,10.698-10.796h1.809v4h-1.809
				c-3.693,0-6.697,3.049-6.697,6.796v75.145c1.834-1.49,4.164-2.383,6.697-2.383h1.809v4h-1.809
				C69.361,104.822,66.357,107.871,66.357,111.617z"/>
		</g>
		<g>
			<polygon fill="#FF6666" points="119.512,104.822 105.954,104.822 105.954,100.822 115.512,100.822 115.512,21.264 
				105.954,21.264 105.954,17.264 119.512,17.264 			"/>
		</g>
	</g>
	<g>
		<g>
			<rect x="19.334" y="28.856" fill="#FF6666" width="20.691" height="4"/>
		</g>
		<g>
			<rect x="19.334" y="42.452" fill="#FF6666" width="34.852" height="4"/>
		</g>
		<g>
			<rect x="19.334" y="52.433" fill="#FF6666" width="34.852" height="4"/>
		</g>
		<g>
			<rect x="19.334" y="62.412" fill="#FF6666" width="24.887" height="4"/>
		</g>
	</g>
	<g>
		<g>
			<path fill="#FF6666" d="M91.024,125.979l-8.868-16.4H99.88L91.024,125.979z M88.867,113.578l2.155,3.986l2.152-3.986H88.867z"/>
		</g>
		<g>
			<g>
				<g>
					<path fill="#FF6666" d="M101.423,14.307H80.612L80.616,5.2c-0.004-0.783,0.313-1.539,0.893-2.121
						c0.666-0.669,1.635-1.053,2.656-1.053l13.713-0.004c1.991,0.007,3.545,1.403,3.545,3.179V14.307z M84.614,10.307h12.809V6.022
						L84.616,6.026L84.614,10.307z"/>
				</g>
			</g>
		</g>
		<g>
			<polygon fill="#FF6666" points="101.421,104.977 97.421,104.977 97.421,21.541 84.616,21.541 84.616,104.977 80.616,104.977 
				80.616,17.541 101.421,17.541 			"/>
		</g>
		<g>
			<rect x="89.018" y="19.021" fill="#FF6666" width="4" height="27.812"/>
		</g>
	</g>
</g>
</svg>
